<svg xmlns="http://www.w3.org/2000/svg" width="512" height="512" viewBox="0 0 512 512">
  <defs>
    <linearGradient id="gradient" x1="0%" y1="0%" x2="100%" y2="100%">
      <stop offset="0%" stop-color="#3498db" />
      <stop offset="100%" stop-color="#f39c12" />
    </linearGradient>
  </defs>
  <rect width="512" height="512" rx="128" fill="url(#gradient)" />
  <path d="M304.36 332.73c0 43.66-36.09 73.27-85.5 73.27-47.27 0-80.71-27.28-82.8-69.89h54.63c1.47 17.1 13.34 27.55 29.33 27.55 15.55 0 26.77-8.82 26.77-21.89 0-34.44-110.64-13.93-110.64-93.11 0-41.11 34.76-71.13 82.62-71.13 47.23 0 79.81 28.93 81.3 69.58h-55.01c-1.1-16.35-11.65-27.89-27.43-27.89-15.33 0-26.48 8.45-26.48 21.37 0 33.5 109.24 13.38 109.24 93.15z" fill="white"/>
</svg> 